<mxfile host="app.diagrams.net" modified="2021-07-24T12:38:42.847Z" agent="5.0 (Windows NT 10.0; Win64; x64) AppleWebKit/537.36 (KHTML, like Gecko) Chrome/91.0.4472.124 Safari/537.36 Edg/91.0.864.67" etag="WEmEVx-TOrxXIb_K7zcf" version="14.9.0" type="github" pages="2">
  <diagram id="ynTLqjROGl6LlpKR909r" name="Archive">
    <mxGraphModel dx="3043" dy="2063" grid="1" gridSize="10" guides="1" tooltips="1" connect="1" arrows="1" fold="1" page="1" pageScale="1" pageWidth="827" pageHeight="1169" math="0" shadow="0">
      <root>
        <mxCell id="0" />
        <mxCell id="1" parent="0" />
        <mxCell id="Tzmc1nk9ro6dUsJLs7gR-5" style="edgeStyle=orthogonalEdgeStyle;curved=1;rounded=0;orthogonalLoop=1;jettySize=auto;html=1;endArrow=classic;endFill=1;exitX=0.984;exitY=0.501;exitDx=0;exitDy=0;exitPerimeter=0;" parent="1" source="xrqHWBid432hgyyBCv2M-30" edge="1">
          <mxGeometry relative="1" as="geometry">
            <mxPoint x="1560" y="694.7199999999998" as="sourcePoint" />
            <mxPoint x="880" y="790" as="targetPoint" />
          </mxGeometry>
        </mxCell>
        <mxCell id="79LVYEcMH0Ad9LNimuyK-8" value="B1310" style="edgeLabel;html=1;align=center;verticalAlign=middle;resizable=0;points=[];" vertex="1" connectable="0" parent="Tzmc1nk9ro6dUsJLs7gR-5">
          <mxGeometry x="0.1716" y="-33" relative="1" as="geometry">
            <mxPoint x="33" y="77" as="offset" />
          </mxGeometry>
        </mxCell>
        <mxCell id="1RO6q3PY1Tk88BdiW3f6-2" style="edgeStyle=orthogonalEdgeStyle;rounded=0;orthogonalLoop=1;jettySize=auto;html=1;exitX=0.416;exitY=1.004;exitDx=0;exitDy=0;snapToPoint=1;exitPerimeter=0;" parent="1" source="j0uAW_TOX1rogn1TUl9k-7" target="1RO6q3PY1Tk88BdiW3f6-1" edge="1">
          <mxGeometry relative="1" as="geometry" />
        </mxCell>
        <mxCell id="1RO6q3PY1Tk88BdiW3f6-3" value="BF with &lt;br&gt;remote manifest" style="edgeLabel;html=1;align=center;verticalAlign=middle;resizable=0;points=[];fontSize=9;" parent="1RO6q3PY1Tk88BdiW3f6-2" vertex="1" connectable="0">
          <mxGeometry x="-0.3168" y="7" relative="1" as="geometry">
            <mxPoint x="-7" y="53" as="offset" />
          </mxGeometry>
        </mxCell>
        <mxCell id="j0uAW_TOX1rogn1TUl9k-7" value="indexBlock (ST)" style="rounded=0;whiteSpace=wrap;html=1;" parent="1" vertex="1">
          <mxGeometry x="360" y="200" width="120" height="40" as="geometry" />
        </mxCell>
        <mxCell id="j0uAW_TOX1rogn1TUl9k-11" value="" style="edgeStyle=orthogonalEdgeStyle;rounded=0;orthogonalLoop=1;jettySize=auto;html=1;endArrow=block;endFill=0;curved=1;exitX=1;exitY=0.5;exitDx=0;exitDy=0;exitPerimeter=0;" parent="1" source="xrqHWBid432hgyyBCv2M-26" target="j0uAW_TOX1rogn1TUl9k-7" edge="1">
          <mxGeometry relative="1" as="geometry">
            <mxPoint x="430" y="140" as="sourcePoint" />
          </mxGeometry>
        </mxCell>
        <mxCell id="j0uAW_TOX1rogn1TUl9k-13" value="pointerFileEntriesToCreate : BlockingCollection&amp;lt;PointerFile&amp;gt;" style="text;whiteSpace=wrap;html=1;" parent="1" vertex="1">
          <mxGeometry x="120" y="604" width="330" height="30" as="geometry" />
        </mxCell>
        <mxCell id="72bqqWS9BI2ylJYkVRHG-1" value="is PointerFile&lt;br&gt;B301" style="edgeStyle=orthogonalEdgeStyle;rounded=0;orthogonalLoop=1;jettySize=auto;html=1;exitX=0.666;exitY=0.999;exitDx=0;exitDy=0;endArrow=block;endFill=0;snapToPoint=0;fontSize=9;exitPerimeter=0;entryX=0.213;entryY=0.11;entryDx=0;entryDy=0;entryPerimeter=0;" parent="1" source="j0uAW_TOX1rogn1TUl9k-7" target="72bqqWS9BI2ylJYkVRHG-49" edge="1">
          <mxGeometry x="-0.2719" y="-1" relative="1" as="geometry">
            <mxPoint x="440" y="732" as="targetPoint" />
            <mxPoint as="offset" />
            <mxPoint x="510" y="360" as="sourcePoint" />
          </mxGeometry>
        </mxCell>
        <mxCell id="72bqqWS9BI2ylJYkVRHG-2" value="is BinaryFile without &lt;br&gt;remote manifest present&lt;br&gt;B302" style="edgeStyle=orthogonalEdgeStyle;rounded=0;orthogonalLoop=1;jettySize=auto;html=1;exitX=0.159;exitY=1.016;exitDx=0;exitDy=0;endArrow=block;endFill=0;fontSize=9;entryX=0.783;entryY=0.929;entryDx=0;entryDy=0;entryPerimeter=0;exitPerimeter=0;" parent="1" source="j0uAW_TOX1rogn1TUl9k-7" edge="1" target="72bqqWS9BI2ylJYkVRHG-10">
          <mxGeometry x="-0.1752" y="-18" relative="1" as="geometry">
            <mxPoint x="450" y="394" as="targetPoint" />
            <mxPoint x="570" y="360" as="sourcePoint" />
            <mxPoint as="offset" />
          </mxGeometry>
        </mxCell>
        <mxCell id="72bqqWS9BI2ylJYkVRHG-10" value="binariesToUpload : BlockingCollection&amp;lt;BinaryFile&amp;gt;" style="text;whiteSpace=wrap;html=1;" parent="1" vertex="1">
          <mxGeometry x="120" y="285" width="330" height="30" as="geometry" />
        </mxCell>
        <mxCell id="72bqqWS9BI2ylJYkVRHG-14" value="pointersToCreate" style="text;whiteSpace=wrap;html=1;" parent="1" vertex="1">
          <mxGeometry x="120" y="444" width="330" height="30" as="geometry" />
        </mxCell>
        <mxCell id="xrqHWBid432hgyyBCv2M-50" style="rounded=0;orthogonalLoop=1;jettySize=auto;html=1;fontSize=9;endArrow=block;endFill=0;exitX=0.911;exitY=1.021;exitDx=0;exitDy=0;entryX=0.584;entryY=0.964;entryDx=0;entryDy=0;exitPerimeter=0;entryPerimeter=0;" parent="1" source="j0uAW_TOX1rogn1TUl9k-7" target="A28OaCKXXTk701PYd4Ue-10" edge="1">
          <mxGeometry relative="1" as="geometry">
            <mxPoint x="570" y="500" as="sourcePoint" />
            <mxPoint x="620.0080677692617" y="561" as="targetPoint" />
          </mxGeometry>
        </mxCell>
        <mxCell id="xrqHWBid432hgyyBCv2M-51" value="Pointer Exists &amp;amp; removeLocal&lt;br&gt;B401" style="edgeLabel;html=1;align=center;verticalAlign=middle;resizable=0;points=[];fontSize=9;" parent="xrqHWBid432hgyyBCv2M-50" vertex="1" connectable="0">
          <mxGeometry x="0.3586" y="-1" relative="1" as="geometry">
            <mxPoint x="1" y="-147" as="offset" />
          </mxGeometry>
        </mxCell>
        <mxCell id="72bqqWS9BI2ylJYkVRHG-21" style="edgeStyle=orthogonalEdgeStyle;rounded=0;orthogonalLoop=1;jettySize=auto;html=1;endArrow=block;endFill=0;exitX=0.5;exitY=1;exitDx=0;exitDy=0;" parent="1" source="79LVYEcMH0Ad9LNimuyK-5" edge="1">
          <mxGeometry relative="1" as="geometry">
            <mxPoint x="580" y="470" as="targetPoint" />
            <mxPoint x="680.4000000000001" y="-222.16000000000008" as="sourcePoint" />
          </mxGeometry>
        </mxCell>
        <mxCell id="xrqHWBid432hgyyBCv2M-27" value="manifestExists&lt;br style=&quot;font-size: 9px;&quot;&gt;B403" style="edgeLabel;html=1;align=center;verticalAlign=middle;resizable=0;points=[];fontSize=9;" parent="72bqqWS9BI2ylJYkVRHG-21" vertex="1" connectable="0">
          <mxGeometry x="-0.7737" y="-3" relative="1" as="geometry">
            <mxPoint x="3" y="22" as="offset" />
          </mxGeometry>
        </mxCell>
        <mxCell id="72bqqWS9BI2ylJYkVRHG-41" value="" style="rounded=0;whiteSpace=wrap;html=1;align=center;" parent="1" vertex="1">
          <mxGeometry x="120" y="474" width="1500" height="5" as="geometry" />
        </mxCell>
        <mxCell id="72bqqWS9BI2ylJYkVRHG-44" value="" style="rounded=0;whiteSpace=wrap;html=1;align=center;" parent="1" vertex="1">
          <mxGeometry x="120" y="315" width="1500" height="5" as="geometry" />
        </mxCell>
        <mxCell id="72bqqWS9BI2ylJYkVRHG-49" value="" style="rounded=0;whiteSpace=wrap;html=1;align=center;" parent="1" vertex="1">
          <mxGeometry x="120" y="634" width="1500" height="5" as="geometry" />
        </mxCell>
        <mxCell id="JRJS1QhtElUK8SZ4vMXs-14" style="edgeStyle=orthogonalEdgeStyle;curved=1;rounded=0;orthogonalLoop=1;jettySize=auto;html=1;endArrow=classic;endFill=1;exitX=1;exitY=0.5;exitDx=0;exitDy=0;" parent="1" source="79LVYEcMH0Ad9LNimuyK-5" edge="1">
          <mxGeometry relative="1" as="geometry">
            <mxPoint x="690" y="385" as="sourcePoint" />
            <mxPoint x="720" y="470" as="targetPoint" />
          </mxGeometry>
        </mxCell>
        <mxCell id="JRJS1QhtElUK8SZ4vMXs-17" value="B410" style="edgeLabel;html=1;align=center;verticalAlign=middle;resizable=0;points=[];" parent="JRJS1QhtElUK8SZ4vMXs-14" vertex="1" connectable="0">
          <mxGeometry x="0.4973" y="-16" relative="1" as="geometry">
            <mxPoint x="2" y="-2" as="offset" />
          </mxGeometry>
        </mxCell>
        <mxCell id="xrqHWBid432hgyyBCv2M-26" value="&lt;span&gt;root : DirectoryInfo&lt;/span&gt;" style="strokeWidth=2;html=1;shape=mxgraph.flowchart.terminator;whiteSpace=wrap;comic=0;" parent="1" vertex="1">
          <mxGeometry x="200" y="140" width="120" height="40" as="geometry" />
        </mxCell>
        <mxCell id="xrqHWBid432hgyyBCv2M-28" style="rounded=0;orthogonalLoop=1;jettySize=auto;html=1;endArrow=block;endFill=0;exitX=0.413;exitY=1.006;exitDx=0;exitDy=0;exitPerimeter=0;" parent="1" target="xrqHWBid432hgyyBCv2M-30" edge="1" source="72bqqWS9BI2ylJYkVRHG-41">
          <mxGeometry relative="1" as="geometry">
            <mxPoint x="739.9999999999998" y="525.4" as="targetPoint" />
            <mxPoint x="740" y="485.4" as="sourcePoint" />
          </mxGeometry>
        </mxCell>
        <mxCell id="xrqHWBid432hgyyBCv2M-29" value="pointerFileCreated&lt;br style=&quot;font-size: 9px;&quot;&gt;B1201" style="edgeStyle=orthogonalEdgeStyle;rounded=0;orthogonalLoop=1;jettySize=auto;html=1;endArrow=block;endFill=0;exitX=0.75;exitY=1;exitDx=0;exitDy=0;fontSize=9;entryX=0.433;entryY=0.057;entryDx=0;entryDy=0;entryPerimeter=0;" parent="1" source="xrqHWBid432hgyyBCv2M-30" target="72bqqWS9BI2ylJYkVRHG-49" edge="1">
          <mxGeometry relative="1" as="geometry">
            <mxPoint x="770" y="630" as="targetPoint" />
          </mxGeometry>
        </mxCell>
        <mxCell id="A28OaCKXXTk701PYd4Ue-12" style="rounded=0;orthogonalLoop=1;jettySize=auto;html=1;exitX=0.25;exitY=1;exitDx=0;exitDy=0;endArrow=block;endFill=0;entryX=0.982;entryY=0.982;entryDx=0;entryDy=0;entryPerimeter=0;" parent="1" source="xrqHWBid432hgyyBCv2M-30" target="A28OaCKXXTk701PYd4Ue-10" edge="1">
          <mxGeometry relative="1" as="geometry">
            <mxPoint x="712" y="790" as="targetPoint" />
            <mxPoint x="620" y="610.4" as="sourcePoint" />
          </mxGeometry>
        </mxCell>
        <mxCell id="A28OaCKXXTk701PYd4Ue-13" value="succesfullyBackedUp&lt;br style=&quot;font-size: 9px;&quot;&gt;B1202" style="edgeLabel;html=1;align=center;verticalAlign=middle;resizable=0;points=[];fontSize=9;" parent="A28OaCKXXTk701PYd4Ue-12" vertex="1" connectable="0">
          <mxGeometry x="0.1326" y="-1" relative="1" as="geometry">
            <mxPoint y="-19" as="offset" />
          </mxGeometry>
        </mxCell>
        <mxCell id="xrqHWBid432hgyyBCv2M-30" value="createPointerFileIfNotExistsBlock" style="rounded=0;whiteSpace=wrap;html=1;" parent="1" vertex="1">
          <mxGeometry x="680" y="520.4" width="120" height="40" as="geometry" />
        </mxCell>
        <mxCell id="xrqHWBid432hgyyBCv2M-31" style="edgeStyle=orthogonalEdgeStyle;curved=1;rounded=0;orthogonalLoop=1;jettySize=auto;html=1;endArrow=classic;endFill=1;exitX=1;exitY=0.5;exitDx=0;exitDy=0;" parent="1" source="xrqHWBid432hgyyBCv2M-30" target="xrqHWBid432hgyyBCv2M-32" edge="1">
          <mxGeometry relative="1" as="geometry">
            <mxPoint x="1291" y="624" as="sourcePoint" />
            <Array as="points">
              <mxPoint x="860" y="540" />
              <mxPoint x="860" y="580" />
            </Array>
          </mxGeometry>
        </mxCell>
        <mxCell id="xrqHWBid432hgyyBCv2M-32" value="B1210" style="ellipse;whiteSpace=wrap;html=1;aspect=fixed;comic=0;" parent="1" vertex="1">
          <mxGeometry x="880" y="560.4" width="40" height="40" as="geometry" />
        </mxCell>
        <mxCell id="xrqHWBid432hgyyBCv2M-35" style="rounded=0;orthogonalLoop=1;jettySize=auto;html=1;entryX=0.52;entryY=0.143;entryDx=0;entryDy=0;entryPerimeter=0;endArrow=classic;endFill=1;exitX=0.5;exitY=1;exitDx=0;exitDy=0;" parent="1" edge="1" target="72bqqWS9BI2ylJYkVRHG-49" source="xrqHWBid432hgyyBCv2M-32">
          <mxGeometry relative="1" as="geometry">
            <mxPoint x="1381.1725245644107" y="593.9993803198558" as="sourcePoint" />
            <mxPoint x="1380.83" y="633.28" as="targetPoint" />
          </mxGeometry>
        </mxCell>
        <mxCell id="xrqHWBid432hgyyBCv2M-36" value="pointerFileEntriesToCheckForDeletedPointers : BlockingCollection&amp;lt;AzureRepository.PointerFileEntry&amp;gt;" style="text;whiteSpace=wrap;html=1;" parent="1" vertex="1">
          <mxGeometry x="120" y="904" width="600" height="30" as="geometry" />
        </mxCell>
        <mxCell id="xrqHWBid432hgyyBCv2M-37" value="" style="rounded=0;whiteSpace=wrap;html=1;align=center;" parent="1" vertex="1">
          <mxGeometry x="120" y="934" width="620" height="5" as="geometry" />
        </mxCell>
        <mxCell id="xrqHWBid432hgyyBCv2M-38" value="&lt;span&gt;currentEntries : PointerFileEntry[]&lt;/span&gt;" style="strokeWidth=2;html=1;shape=mxgraph.flowchart.terminator;whiteSpace=wrap;comic=0;" parent="1" vertex="1">
          <mxGeometry x="240" y="860" width="120" height="40" as="geometry" />
        </mxCell>
        <mxCell id="xrqHWBid432hgyyBCv2M-39" value="createDeletedPointerFileEntryForDeletedPointerFilesBlock" style="rounded=0;whiteSpace=wrap;html=1;" parent="1" vertex="1">
          <mxGeometry x="480" y="974" width="120" height="40" as="geometry" />
        </mxCell>
        <mxCell id="xrqHWBid432hgyyBCv2M-42" value="" style="edgeStyle=orthogonalEdgeStyle;rounded=0;orthogonalLoop=1;jettySize=auto;html=1;endArrow=classic;endFill=1;curved=1;" parent="1" source="xrqHWBid432hgyyBCv2M-38" edge="1">
          <mxGeometry relative="1" as="geometry">
            <mxPoint x="360" y="874" as="sourcePoint" />
            <mxPoint x="420" y="930" as="targetPoint" />
          </mxGeometry>
        </mxCell>
        <mxCell id="xrqHWBid432hgyyBCv2M-43" value="B1401" style="edgeLabel;html=1;align=center;verticalAlign=middle;resizable=0;points=[];" parent="xrqHWBid432hgyyBCv2M-42" vertex="1" connectable="0">
          <mxGeometry x="0.3227" y="-13" relative="1" as="geometry">
            <mxPoint x="-7" y="-3" as="offset" />
          </mxGeometry>
        </mxCell>
        <mxCell id="xrqHWBid432hgyyBCv2M-44" style="edgeStyle=orthogonalEdgeStyle;rounded=0;orthogonalLoop=1;jettySize=auto;html=1;endArrow=block;endFill=0;entryX=0.5;entryY=0;entryDx=0;entryDy=0;exitX=0.244;exitY=1.086;exitDx=0;exitDy=0;exitPerimeter=0;" parent="1" source="xrqHWBid432hgyyBCv2M-37" target="xrqHWBid432hgyyBCv2M-39" edge="1">
          <mxGeometry relative="1" as="geometry">
            <mxPoint x="1370.0285714285715" y="744" as="targetPoint" />
            <mxPoint x="510" y="950" as="sourcePoint" />
          </mxGeometry>
        </mxCell>
        <mxCell id="xrqHWBid432hgyyBCv2M-54" style="edgeStyle=orthogonalEdgeStyle;curved=1;rounded=0;orthogonalLoop=1;jettySize=auto;html=1;endArrow=classic;endFill=1;exitX=1;exitY=0.5;exitDx=0;exitDy=0;entryX=0.293;entryY=-0.337;entryDx=0;entryDy=0;entryPerimeter=0;" parent="1" source="j0uAW_TOX1rogn1TUl9k-7" edge="1" target="72bqqWS9BI2ylJYkVRHG-44">
          <mxGeometry relative="1" as="geometry">
            <mxPoint x="600" y="339" as="sourcePoint" />
            <mxPoint x="560" y="310" as="targetPoint" />
          </mxGeometry>
        </mxCell>
        <mxCell id="xrqHWBid432hgyyBCv2M-55" value="B310" style="edgeLabel;html=1;align=center;verticalAlign=middle;resizable=0;points=[];" parent="xrqHWBid432hgyyBCv2M-54" vertex="1" connectable="0">
          <mxGeometry x="0.0185" y="-16" relative="1" as="geometry">
            <mxPoint x="-19" y="44" as="offset" />
          </mxGeometry>
        </mxCell>
        <mxCell id="A28OaCKXXTk701PYd4Ue-7" style="edgeStyle=orthogonalEdgeStyle;rounded=0;orthogonalLoop=1;jettySize=auto;html=1;endArrow=block;endFill=0;" parent="1" target="A28OaCKXXTk701PYd4Ue-9" edge="1">
          <mxGeometry relative="1" as="geometry">
            <mxPoint x="979.9999999999998" y="679" as="targetPoint" />
            <mxPoint x="980" y="639" as="sourcePoint" />
          </mxGeometry>
        </mxCell>
        <mxCell id="Tzmc1nk9ro6dUsJLs7gR-12" style="edgeStyle=orthogonalEdgeStyle;rounded=0;orthogonalLoop=1;jettySize=auto;html=1;entryX=0;entryY=0.5;entryDx=0;entryDy=0;endArrow=diamond;endFill=0;exitX=1;exitY=0.5;exitDx=0;exitDy=0;curved=1;" parent="1" source="xrqHWBid432hgyyBCv2M-30" target="Tzmc1nk9ro6dUsJLs7gR-14" edge="1">
          <mxGeometry relative="1" as="geometry">
            <mxPoint x="1680" y="714.7200000000003" as="sourcePoint" />
          </mxGeometry>
        </mxCell>
        <mxCell id="Tzmc1nk9ro6dUsJLs7gR-13" value="do not start before&lt;br&gt;B1502" style="edgeLabel;html=1;align=center;verticalAlign=middle;resizable=0;points=[];" parent="Tzmc1nk9ro6dUsJLs7gR-12" vertex="1" connectable="0">
          <mxGeometry x="-0.7868" y="1" relative="1" as="geometry">
            <mxPoint x="309" y="275" as="offset" />
          </mxGeometry>
        </mxCell>
        <mxCell id="A28OaCKXXTk701PYd4Ue-9" value="createPointerFileEntryIfNotExistsBlock" style="rounded=0;whiteSpace=wrap;html=1;" parent="1" vertex="1">
          <mxGeometry x="920" y="680" width="120" height="40" as="geometry" />
        </mxCell>
        <mxCell id="A28OaCKXXTk701PYd4Ue-10" value="binariesToDelete : BlockingCollection&amp;lt;BinaryFile&amp;gt;" style="text;whiteSpace=wrap;html=1;" parent="1" vertex="1">
          <mxGeometry x="120" y="764" width="600" height="30" as="geometry" />
        </mxCell>
        <mxCell id="A28OaCKXXTk701PYd4Ue-11" value="" style="rounded=0;whiteSpace=wrap;html=1;align=center;" parent="1" vertex="1">
          <mxGeometry x="120" y="794" width="1720" height="5" as="geometry" />
        </mxCell>
        <mxCell id="A28OaCKXXTk701PYd4Ue-14" style="edgeStyle=orthogonalEdgeStyle;rounded=0;orthogonalLoop=1;jettySize=auto;html=1;endArrow=block;endFill=0;" parent="1" target="A28OaCKXXTk701PYd4Ue-15" edge="1">
          <mxGeometry relative="1" as="geometry">
            <mxPoint x="1139.9999999999998" y="845" as="targetPoint" />
            <mxPoint x="1140" y="799" as="sourcePoint" />
          </mxGeometry>
        </mxCell>
        <mxCell id="A28OaCKXXTk701PYd4Ue-15" value="deleteBinaryFilesBlock" style="rounded=0;whiteSpace=wrap;html=1;" parent="1" vertex="1">
          <mxGeometry x="1080" y="840" width="120" height="40" as="geometry" />
        </mxCell>
        <mxCell id="Tzmc1nk9ro6dUsJLs7gR-9" value="pointerFileEntriesToExport : BlockingCollection&amp;lt;AzureRepository.PointerFileEntry&amp;gt;" style="text;whiteSpace=wrap;html=1;" parent="1" vertex="1">
          <mxGeometry x="1310" y="964" width="600" height="30" as="geometry" />
        </mxCell>
        <mxCell id="Tzmc1nk9ro6dUsJLs7gR-10" value="" style="rounded=0;whiteSpace=wrap;html=1;align=center;" parent="1" vertex="1">
          <mxGeometry x="1320" y="994" width="520" height="5" as="geometry" />
        </mxCell>
        <mxCell id="Tzmc1nk9ro6dUsJLs7gR-14" value="pointerFileEntriesToExport" style="rounded=0;whiteSpace=wrap;html=1;" parent="1" vertex="1">
          <mxGeometry x="1720" y="1034" width="120" height="40" as="geometry" />
        </mxCell>
        <mxCell id="Tzmc1nk9ro6dUsJLs7gR-16" value="B1501" style="edgeStyle=orthogonalEdgeStyle;rounded=0;orthogonalLoop=1;jettySize=auto;html=1;endArrow=block;endFill=1;entryX=0.5;entryY=0;entryDx=0;entryDy=0;exitX=0.965;exitY=1.067;exitDx=0;exitDy=0;exitPerimeter=0;" parent="1" source="Tzmc1nk9ro6dUsJLs7gR-10" target="Tzmc1nk9ro6dUsJLs7gR-14" edge="1">
          <mxGeometry relative="1" as="geometry">
            <mxPoint x="550" y="918" as="targetPoint" />
            <mxPoint x="1620" y="1004" as="sourcePoint" />
          </mxGeometry>
        </mxCell>
        <mxCell id="7QOIQFVTWMtG5hquTdt8-1" style="edgeStyle=orthogonalEdgeStyle;curved=1;rounded=0;orthogonalLoop=1;jettySize=auto;html=1;endArrow=classic;endFill=1;entryX=0.5;entryY=0;entryDx=0;entryDy=0;" parent="1" source="j0uAW_TOX1rogn1TUl9k-7" edge="1" target="xrqHWBid432hgyyBCv2M-32">
          <mxGeometry relative="1" as="geometry">
            <mxPoint x="610" y="350" as="sourcePoint" />
            <mxPoint x="1000" y="990" as="targetPoint" />
          </mxGeometry>
        </mxCell>
        <mxCell id="1RO6q3PY1Tk88BdiW3f6-1" value="" style="strokeWidth=2;html=1;shape=mxgraph.flowchart.terminator;whiteSpace=wrap;" parent="1" vertex="1">
          <mxGeometry x="390" y="369" width="40" height="22" as="geometry" />
        </mxCell>
        <mxCell id="79LVYEcMH0Ad9LNimuyK-4" style="rounded=0;orthogonalLoop=1;jettySize=auto;html=1;endArrow=block;endFill=0;exitX=0.327;exitY=0.886;exitDx=0;exitDy=0;exitPerimeter=0;" edge="1" parent="1" target="79LVYEcMH0Ad9LNimuyK-5">
          <mxGeometry relative="1" as="geometry">
            <mxPoint x="579.9999999999998" y="870" as="targetPoint" />
            <mxPoint x="580.5" y="319.42999999999995" as="sourcePoint" />
          </mxGeometry>
        </mxCell>
        <mxCell id="79LVYEcMH0Ad9LNimuyK-5" value="uploadBinaryFileBlock" style="rounded=0;whiteSpace=wrap;html=1;" vertex="1" parent="1">
          <mxGeometry x="520" y="360" width="120" height="40" as="geometry" />
        </mxCell>
      </root>
    </mxGraphModel>
  </diagram>
  <diagram name="Restore" id="wl7TmaJfxipMBP2-h03A">
    <mxGraphModel dx="1432" dy="971" grid="1" gridSize="10" guides="1" tooltips="1" connect="1" arrows="1" fold="1" page="1" pageScale="1" pageWidth="827" pageHeight="1169" math="0" shadow="0">
      <root>
        <mxCell id="EnfrKUZYTSboUuE-3vHQ-0" />
        <mxCell id="EnfrKUZYTSboUuE-3vHQ-1" parent="EnfrKUZYTSboUuE-3vHQ-0" />
        <mxCell id="EnfrKUZYTSboUuE-3vHQ-5" value="&lt;font style=&quot;font-size: 9px&quot;&gt;if (download &amp;amp;&amp;amp; !restored)&lt;br&gt;S11&lt;/font&gt;" style="edgeStyle=orthogonalEdgeStyle;rounded=0;orthogonalLoop=1;jettySize=auto;html=1;exitX=0.25;exitY=1;exitDx=0;exitDy=0;endArrow=block;endFill=0;entryX=0.1;entryY=0.24;entryDx=0;entryDy=0;entryPerimeter=0;" parent="EnfrKUZYTSboUuE-3vHQ-1" source="EnfrKUZYTSboUuE-3vHQ-6" target="EnfrKUZYTSboUuE-3vHQ-41" edge="1">
          <mxGeometry x="-0.2883" y="-20" relative="1" as="geometry">
            <mxPoint x="470" y="396.49" as="targetPoint" />
            <mxPoint x="530" y="170.49" as="sourcePoint" />
            <mxPoint as="offset" />
          </mxGeometry>
        </mxCell>
        <mxCell id="8RtUcm2-0oMA0pU1uN9M-0" style="edgeStyle=orthogonalEdgeStyle;rounded=0;orthogonalLoop=1;jettySize=auto;html=1;endArrow=block;endFill=0;exitX=0.75;exitY=1;exitDx=0;exitDy=0;entryX=0.5;entryY=0;entryDx=0;entryDy=0;entryPerimeter=0;" parent="EnfrKUZYTSboUuE-3vHQ-1" source="EnfrKUZYTSboUuE-3vHQ-6" target="wL6CRVn2vlSf1lH8OfKU-0" edge="1">
          <mxGeometry relative="1" as="geometry">
            <mxPoint x="530" y="440.49" as="targetPoint" />
            <mxPoint x="640" y="360" as="sourcePoint" />
          </mxGeometry>
        </mxCell>
        <mxCell id="8RtUcm2-0oMA0pU1uN9M-2" value="restored&lt;br&gt;S12" style="edgeLabel;html=1;align=center;verticalAlign=middle;resizable=0;points=[];" parent="8RtUcm2-0oMA0pU1uN9M-0" vertex="1" connectable="0">
          <mxGeometry x="-0.62" y="-2" relative="1" as="geometry">
            <mxPoint x="2" y="54" as="offset" />
          </mxGeometry>
        </mxCell>
        <mxCell id="Iznc7XeJP2yh3MohL25W-8" style="edgeStyle=orthogonalEdgeStyle;rounded=0;orthogonalLoop=1;jettySize=auto;html=1;entryX=0.5;entryY=0;entryDx=0;entryDy=0;entryPerimeter=0;endArrow=block;endFill=0;" parent="EnfrKUZYTSboUuE-3vHQ-1" source="EnfrKUZYTSboUuE-3vHQ-6" target="Iznc7XeJP2yh3MohL25W-6" edge="1">
          <mxGeometry relative="1" as="geometry" />
        </mxCell>
        <mxCell id="Iznc7XeJP2yh3MohL25W-9" value="S14" style="edgeLabel;html=1;align=center;verticalAlign=middle;resizable=0;points=[];" parent="Iznc7XeJP2yh3MohL25W-8" vertex="1" connectable="0">
          <mxGeometry x="0.4919" y="-2" relative="1" as="geometry">
            <mxPoint as="offset" />
          </mxGeometry>
        </mxCell>
        <mxCell id="EnfrKUZYTSboUuE-3vHQ-6" value="indexBlock" style="rounded=0;whiteSpace=wrap;html=1;" parent="EnfrKUZYTSboUuE-3vHQ-1" vertex="1">
          <mxGeometry x="240" y="260" width="120" height="40" as="geometry" />
        </mxCell>
        <mxCell id="EnfrKUZYTSboUuE-3vHQ-15" value="pointersToRestore : BlockingCollection&amp;lt;(FileInfo Binary, PointerFile[] PointerFiles)&amp;gt;" style="text;whiteSpace=wrap;html=1;" parent="EnfrKUZYTSboUuE-3vHQ-1" vertex="1">
          <mxGeometry x="120" y="730" width="460" height="30" as="geometry" />
        </mxCell>
        <mxCell id="EnfrKUZYTSboUuE-3vHQ-39" value="" style="rounded=0;whiteSpace=wrap;html=1;align=center;" parent="EnfrKUZYTSboUuE-3vHQ-1" vertex="1">
          <mxGeometry x="120" y="635" width="1500" height="5" as="geometry" />
        </mxCell>
        <mxCell id="EnfrKUZYTSboUuE-3vHQ-40" value="" style="rounded=0;whiteSpace=wrap;html=1;align=center;" parent="EnfrKUZYTSboUuE-3vHQ-1" vertex="1">
          <mxGeometry x="110" y="680" width="1500" height="5" as="geometry" />
        </mxCell>
        <mxCell id="EnfrKUZYTSboUuE-3vHQ-41" value="" style="rounded=0;whiteSpace=wrap;html=1;align=center;" parent="EnfrKUZYTSboUuE-3vHQ-1" vertex="1">
          <mxGeometry x="120" y="355" width="1500" height="5" as="geometry" />
        </mxCell>
        <mxCell id="EnfrKUZYTSboUuE-3vHQ-45" value="" style="rounded=0;whiteSpace=wrap;html=1;align=center;" parent="EnfrKUZYTSboUuE-3vHQ-1" vertex="1">
          <mxGeometry x="120" y="755" width="1500" height="5" as="geometry" />
        </mxCell>
        <mxCell id="EnfrKUZYTSboUuE-3vHQ-47" value="" style="rounded=0;whiteSpace=wrap;html=1;align=center;" parent="EnfrKUZYTSboUuE-3vHQ-1" vertex="1">
          <mxGeometry x="120" y="874" width="1500" height="5" as="geometry" />
        </mxCell>
        <mxCell id="EnfrKUZYTSboUuE-3vHQ-65" value="" style="rounded=0;whiteSpace=wrap;html=1;align=center;" parent="EnfrKUZYTSboUuE-3vHQ-1" vertex="1">
          <mxGeometry x="120" y="1000" width="1500" height="5" as="geometry" />
        </mxCell>
        <mxCell id="rb1DYJhnkf-T6zlF8jWV-0" value="&lt;span&gt;DirectoryInfo or FileInfo&lt;/span&gt;" style="strokeWidth=2;html=1;shape=mxgraph.flowchart.terminator;whiteSpace=wrap;comic=0;" parent="EnfrKUZYTSboUuE-3vHQ-1" vertex="1">
          <mxGeometry x="120" y="200" width="120" height="40" as="geometry" />
        </mxCell>
        <mxCell id="rb1DYJhnkf-T6zlF8jWV-1" value="" style="edgeStyle=orthogonalEdgeStyle;rounded=0;orthogonalLoop=1;jettySize=auto;html=1;endArrow=classic;endFill=1;curved=1;exitX=1;exitY=0.5;exitDx=0;exitDy=0;exitPerimeter=0;" parent="EnfrKUZYTSboUuE-3vHQ-1" source="rb1DYJhnkf-T6zlF8jWV-0" target="EnfrKUZYTSboUuE-3vHQ-6" edge="1">
          <mxGeometry relative="1" as="geometry">
            <mxPoint x="240" y="214" as="sourcePoint" />
            <mxPoint x="300" y="280" as="targetPoint" />
          </mxGeometry>
        </mxCell>
        <mxCell id="rb1DYJhnkf-T6zlF8jWV-2" value="S10" style="edgeLabel;html=1;align=center;verticalAlign=middle;resizable=0;points=[];" parent="rb1DYJhnkf-T6zlF8jWV-1" vertex="1" connectable="0">
          <mxGeometry x="0.3227" y="-13" relative="1" as="geometry">
            <mxPoint x="-7" y="-3" as="offset" />
          </mxGeometry>
        </mxCell>
        <mxCell id="Iznc7XeJP2yh3MohL25W-10" style="edgeStyle=orthogonalEdgeStyle;rounded=0;orthogonalLoop=1;jettySize=auto;html=1;entryX=0.28;entryY=-0.857;entryDx=0;entryDy=0;entryPerimeter=0;endArrow=block;endFill=0;" parent="EnfrKUZYTSboUuE-3vHQ-1" source="8RtUcm2-0oMA0pU1uN9M-4" target="EnfrKUZYTSboUuE-3vHQ-45" edge="1">
          <mxGeometry relative="1" as="geometry" />
        </mxCell>
        <mxCell id="Iznc7XeJP2yh3MohL25W-11" value="manifestRestored&lt;br&gt;S21" style="edgeLabel;html=1;align=center;verticalAlign=middle;resizable=0;points=[];" parent="Iznc7XeJP2yh3MohL25W-10" vertex="1" connectable="0">
          <mxGeometry x="-0.6244" y="-3" relative="1" as="geometry">
            <mxPoint as="offset" />
          </mxGeometry>
        </mxCell>
        <mxCell id="Iznc7XeJP2yh3MohL25W-12" style="edgeStyle=orthogonalEdgeStyle;rounded=0;orthogonalLoop=1;jettySize=auto;html=1;exitX=0.75;exitY=1;exitDx=0;exitDy=0;entryX=0.5;entryY=0;entryDx=0;entryDy=0;entryPerimeter=0;endArrow=block;endFill=0;" parent="EnfrKUZYTSboUuE-3vHQ-1" source="8RtUcm2-0oMA0pU1uN9M-4" target="Iznc7XeJP2yh3MohL25W-7" edge="1">
          <mxGeometry relative="1" as="geometry" />
        </mxCell>
        <mxCell id="Iznc7XeJP2yh3MohL25W-13" value="S22" style="edgeLabel;html=1;align=center;verticalAlign=middle;resizable=0;points=[];" parent="Iznc7XeJP2yh3MohL25W-12" vertex="1" connectable="0">
          <mxGeometry x="0.6286" y="-1" relative="1" as="geometry">
            <mxPoint as="offset" />
          </mxGeometry>
        </mxCell>
        <mxCell id="tofYzIzjmC_pQzF9rQz5-2" style="edgeStyle=orthogonalEdgeStyle;rounded=0;orthogonalLoop=1;jettySize=auto;html=1;fontSize=9;endArrow=block;endFill=1;strokeWidth=1;entryX=0.477;entryY=-0.4;entryDx=0;entryDy=0;entryPerimeter=0;exitX=1;exitY=0.5;exitDx=0;exitDy=0;curved=1;" parent="EnfrKUZYTSboUuE-3vHQ-1" source="8RtUcm2-0oMA0pU1uN9M-4" target="EnfrKUZYTSboUuE-3vHQ-45" edge="1">
          <mxGeometry relative="1" as="geometry">
            <mxPoint x="820" y="775.1428571428571" as="targetPoint" />
          </mxGeometry>
        </mxCell>
        <mxCell id="tofYzIzjmC_pQzF9rQz5-3" value="S29" style="edgeLabel;html=1;align=center;verticalAlign=middle;resizable=0;points=[];fontSize=9;" parent="tofYzIzjmC_pQzF9rQz5-2" vertex="1" connectable="0">
          <mxGeometry x="-0.8653" y="-3" relative="1" as="geometry">
            <mxPoint as="offset" />
          </mxGeometry>
        </mxCell>
        <mxCell id="8RtUcm2-0oMA0pU1uN9M-4" value="processManifestBlock" style="rounded=0;whiteSpace=wrap;html=1;" parent="EnfrKUZYTSboUuE-3vHQ-1" vertex="1">
          <mxGeometry x="480" y="400" width="120" height="40" as="geometry" />
        </mxCell>
        <mxCell id="8RtUcm2-0oMA0pU1uN9M-5" value="" style="edgeStyle=orthogonalEdgeStyle;rounded=0;orthogonalLoop=1;jettySize=auto;html=1;endArrow=block;endFill=0;entryX=0.5;entryY=0;entryDx=0;entryDy=0;" parent="EnfrKUZYTSboUuE-3vHQ-1" target="8RtUcm2-0oMA0pU1uN9M-4" edge="1">
          <mxGeometry relative="1" as="geometry">
            <mxPoint x="600" y="524.98" as="targetPoint" />
            <mxPoint x="540" y="360" as="sourcePoint" />
          </mxGeometry>
        </mxCell>
        <mxCell id="Iznc7XeJP2yh3MohL25W-5" style="edgeStyle=orthogonalEdgeStyle;rounded=0;orthogonalLoop=1;jettySize=auto;html=1;entryX=0;entryY=0.5;entryDx=0;entryDy=0;endArrow=block;endFill=0;" parent="EnfrKUZYTSboUuE-3vHQ-1" source="wL6CRVn2vlSf1lH8OfKU-0" target="8RtUcm2-0oMA0pU1uN9M-4" edge="1">
          <mxGeometry relative="1" as="geometry" />
        </mxCell>
        <mxCell id="wL6CRVn2vlSf1lH8OfKU-0" value="restoredManifests" style="strokeWidth=2;html=1;shape=mxgraph.flowchart.database;whiteSpace=wrap;align=center;aspect=fixed;" parent="EnfrKUZYTSboUuE-3vHQ-1" vertex="1">
          <mxGeometry x="310" y="400" width="40" height="40" as="geometry" />
        </mxCell>
        <mxCell id="A3zdOb0x3SjZbzXE-TR2-0" value="TODO&lt;br&gt;&lt;br&gt;* GetAllManifestHashes remove&lt;br&gt;POinterFile.ChunkHashes remove&lt;br&gt;&lt;br&gt;Tests for FastHash behavior&lt;br&gt;ChunkTest restore 1 part hydrated&lt;br&gt;&lt;br&gt;blocks: start to seed() Func&lt;br&gt;chunkhashes cache??&lt;br&gt;&lt;br&gt;DataFlowBlockExtensions remove?&lt;br&gt;AsParallelWithParalelism remove?&lt;br&gt;NitoAsync library remove?&lt;br&gt;CreatePointerFileResults enum test?&lt;br&gt;&lt;br&gt;pointerService.GetBinaryFile ensureCorrectHash TEST&lt;br&gt;&lt;br&gt;Restore_FullSourceDirectory_Selectively&lt;br&gt;&lt;br&gt;SHAHasher async&lt;br&gt;&lt;br&gt;archive : wat met BinaryFile.Hash != PointerFile.Hash?&lt;br&gt;&lt;br&gt;maxdegreeofconcurrency" style="text;html=1;strokeColor=none;fillColor=none;align=center;verticalAlign=middle;whiteSpace=wrap;rounded=0;" parent="EnfrKUZYTSboUuE-3vHQ-1" vertex="1">
          <mxGeometry x="1130" y="395.5" width="360" height="139" as="geometry" />
        </mxCell>
        <mxCell id="wv7-nN7wfWGE3ZTgmPZX-1" value="manifestsToDownload : BlockingCollection&amp;lt;ManifestHash&amp;gt;" style="text;whiteSpace=wrap;html=1;" parent="EnfrKUZYTSboUuE-3vHQ-1" vertex="1">
          <mxGeometry x="120" y="330" width="330" height="30" as="geometry" />
        </mxCell>
        <mxCell id="Iznc7XeJP2yh3MohL25W-0" style="edgeStyle=orthogonalEdgeStyle;rounded=0;orthogonalLoop=1;jettySize=auto;html=1;endArrow=diamond;endFill=0;exitX=1;exitY=0.5;exitDx=0;exitDy=0;curved=1;" parent="EnfrKUZYTSboUuE-3vHQ-1" source="EnfrKUZYTSboUuE-3vHQ-6" target="8RtUcm2-0oMA0pU1uN9M-4" edge="1">
          <mxGeometry relative="1" as="geometry">
            <Array as="points">
              <mxPoint x="410" y="280" />
              <mxPoint x="410" y="417" />
            </Array>
            <mxPoint x="-10" y="220.72000000000025" as="sourcePoint" />
            <mxPoint x="30" y="560" as="targetPoint" />
          </mxGeometry>
        </mxCell>
        <mxCell id="Iznc7XeJP2yh3MohL25W-2" value="do not start before&lt;br style=&quot;font-size: 9px;&quot;&gt;all indexed&lt;br style=&quot;font-size: 9px;&quot;&gt;S19" style="edgeLabel;html=1;align=center;verticalAlign=middle;resizable=0;points=[];fontSize=9;" parent="Iznc7XeJP2yh3MohL25W-0" vertex="1" connectable="0">
          <mxGeometry x="0.3173" y="12" relative="1" as="geometry">
            <mxPoint x="18" y="-9" as="offset" />
          </mxGeometry>
        </mxCell>
        <mxCell id="Iznc7XeJP2yh3MohL25W-3" value="" style="edgeStyle=orthogonalEdgeStyle;rounded=0;orthogonalLoop=1;jettySize=auto;html=1;endArrow=classic;endFill=1;curved=1;" parent="EnfrKUZYTSboUuE-3vHQ-1" source="EnfrKUZYTSboUuE-3vHQ-6" edge="1">
          <mxGeometry relative="1" as="geometry">
            <mxPoint x="430" y="280" as="sourcePoint" />
            <mxPoint x="460" y="350" as="targetPoint" />
          </mxGeometry>
        </mxCell>
        <mxCell id="Iznc7XeJP2yh3MohL25W-4" value="S13" style="edgeLabel;html=1;align=center;verticalAlign=middle;resizable=0;points=[];" parent="Iznc7XeJP2yh3MohL25W-3" vertex="1" connectable="0">
          <mxGeometry x="0.3227" y="-13" relative="1" as="geometry">
            <mxPoint x="-7" y="-3" as="offset" />
          </mxGeometry>
        </mxCell>
        <mxCell id="tofYzIzjmC_pQzF9rQz5-1" style="edgeStyle=orthogonalEdgeStyle;rounded=0;orthogonalLoop=1;jettySize=auto;html=1;fontSize=9;endArrow=block;endFill=0;strokeWidth=1;exitX=1;exitY=0.5;exitDx=0;exitDy=0;exitPerimeter=0;" parent="EnfrKUZYTSboUuE-3vHQ-1" source="Iznc7XeJP2yh3MohL25W-6" edge="1">
          <mxGeometry relative="1" as="geometry">
            <mxPoint x="480" y="420" as="targetPoint" />
          </mxGeometry>
        </mxCell>
        <mxCell id="Iznc7XeJP2yh3MohL25W-6" value="pointerFilesWaitingForManifestRestoration" style="strokeWidth=2;html=1;shape=mxgraph.flowchart.database;whiteSpace=wrap;align=center;aspect=fixed;" parent="EnfrKUZYTSboUuE-3vHQ-1" vertex="1">
          <mxGeometry x="280" y="457.5" width="40" height="40" as="geometry" />
        </mxCell>
        <mxCell id="Iznc7XeJP2yh3MohL25W-7" value="chunksForManifest" style="strokeWidth=2;html=1;shape=mxgraph.flowchart.database;whiteSpace=wrap;align=center;aspect=fixed;" parent="EnfrKUZYTSboUuE-3vHQ-1" vertex="1">
          <mxGeometry x="650" y="530" width="40" height="40" as="geometry" />
        </mxCell>
      </root>
    </mxGraphModel>
  </diagram>
</mxfile>
